<?xml version="1.0" encoding="UTF-8"?>
<svg xmlns="http://www.w3.org/2000/svg" xmlns:xlink="http://www.w3.org/1999/xlink" viewBox="0 0 34.79 86.19">
  <defs>
    <style>
      .cls-1 {
        fill: url(#radial-gradient);
      }

      .cls-2 {
        fill: #141f2d;
      }

      .cls-3 {
        isolation: isolate;
      }

      .cls-4 {
        fill: #d1fffc;
      }

      .cls-4, .cls-5 {
        mix-blend-mode: overlay;
      }

      .cls-6 {
        fill: #fff;
      }

      .cls-7 {
        fill: #ff0096;
      }

      .cls-8 {
        fill: #2a5c73;
      }

      .cls-5 {
        opacity: .67;
      }

      .cls-9 {
        fill: #ffd304;
      }

      .cls-10 {
        fill: #44aaf7;
      }
    </style>
    <radialGradient id="radial-gradient" cx="15.75" cy="54.31" fx="15.75" fy="54.31" r="27.84" gradientUnits="userSpaceOnUse">
      <stop offset=".1" stop-color="#abfcf7"/>
      <stop offset=".47" stop-color="#94efe9"/>
      <stop offset=".75" stop-color="#80e4dd"/>
    </radialGradient>
  </defs>
  <g class="cls-3">
    <g id="Layer_2" data-name="Layer 2">
      <g id="Layer_1-2" data-name="Layer 1">
        <g>
          <path class="cls-7" d="M4.59,85.94c-.08,0-.16-.04-.2-.11-.05-.07-.06-.15-.03-.23l1.42-3.91c.04-.1.13-.17.23-.17,0,0,5.48.28,5.48.28.1,0,.19.07.22.16s.01.2-.06.27l-3.69,3.62s-.11.07-.18.07h-3.2Z"/>
          <path class="cls-6" d="M6.01,81.79l5.47.28-3.69,3.62h-3.2l1.42-3.91M6.01,81.29c-.21,0-.4.13-.47.33l-1.42,3.91c-.06.15-.03.32.06.46.09.13.25.21.41.21h3.2c.13,0,.26-.05.35-.14l3.69-3.62c.14-.14.19-.35.12-.53-.07-.19-.24-.31-.44-.32l-5.47-.28s-.02,0-.03,0h0Z"/>
        </g>
        <g>
          <path class="cls-10" d="M17.12,42.23s-.1-.01-.14-.04c-.1-.06-.14-.18-.1-.29.02-.05,1.77-4.97-.39-5.82-.25-.1-.52-.2-.78-.3-2.23-.83-5-1.88-5.03-5.34l.97-2.46c-.42.18-1.02.37-1.72.37-.67,0-1.32-.17-1.93-.5-3.76-2.03-5.11-4.47-4.03-7.26,1.39-3.57,4.15-5.94,4.27-6.04.05-.04.1-.06.16-.06.02,0,.04,0,.05,0,.08.02.14.07.17.14l1.56,3.36c.04.08.03.18-.02.25-1.51,2.16-3.78,5.93-3.44,6.85.03.07.17.12.4.12,1.95,0,7.92-3.06,7.98-3.09.04-.02.08-.03.11-.03.08,0,.16.04.21.12l1.89,2.99c.05.08.05.19,0,.27-1.98,3.03-3.94,6.64-3.64,7.2.08.15.35.18.79.18h.38c1.72,0,3.44.47,4.33,3.86l.7,2.88c.02.09,0,.18-.07.24l-2.51,2.33s-.11.07-.17.07Z"/>
          <path class="cls-6" d="M8.4,14.75l1.56,3.36s-3.98,5.69-3.47,7.08c.07.19.3.28.63.28,2.03,0,8.09-3.11,8.09-3.11l1.89,2.99s-4.2,6.42-3.65,7.45c.15.28.52.31,1.02.31.12,0,.24,0,.38,0,1.31,0,3.17.16,4.08,3.68l.7,2.88-2.51,2.33s1.88-5.19-.53-6.14c-2.41-.95-5.63-1.73-5.65-5.41l1.21-3.01s-.92.68-2.21.68c-.55,0-1.17-.12-1.81-.47-2.16-1.17-5.3-3.39-3.92-6.95,1.38-3.56,4.2-5.93,4.2-5.93M8.4,14.25c-.12,0-.23.04-.32.12-.12.1-2.93,2.5-4.34,6.14-1.13,2.92.26,5.47,4.15,7.57.65.35,1.34.53,2.05.53.48,0,.91-.08,1.28-.19l-.74,1.84c-.02.06-.04.12-.04.19.02,3.63,2.89,4.71,5.19,5.57.27.1.53.2.78.3,1.59.63.69,4.28.24,5.51-.08.22,0,.46.19.59.08.06.18.08.28.08.12,0,.24-.04.34-.13l2.51-2.33c.13-.12.19-.31.15-.49l-.7-2.88c-.94-3.58-2.84-4.06-4.57-4.06h-.2s-.18,0-.18,0c-.3,0-.49-.02-.57-.05-.08-.74,1.8-4.15,3.62-6.94.11-.16.11-.38,0-.54l-1.89-2.99c-.09-.15-.26-.23-.42-.23-.08,0-.16.02-.23.06-1.66.85-6.3,3.06-7.86,3.06-.09,0-.14,0-.18-.01-.13-.8,1.63-3.98,3.42-6.55.1-.15.12-.34.04-.5l-1.56-3.36c-.07-.14-.19-.24-.35-.28-.04,0-.07-.01-.11-.01h0Z"/>
        </g>
        <g>
          <rect class="cls-9" x="28.02" y=".25" width="5.62" height="6.06" rx=".25" ry=".25"/>
          <path class="cls-6" d="M33.38.5v5.56h-5.12V.5h5.12M33.38,0h-5.12c-.28,0-.5.22-.5.5v5.56c0,.28.22.5.5.5h5.12c.28,0,.5-.22.5-.5V.5c0-.28-.22-.5-.5-.5h0Z"/>
        </g>
        <g>
          <g>
            <g>
              <path class="cls-1" d="M12.42,73.87c-4.69,0-8.49-1.26-10.43-3.46-.62-.71-1.04-1.49-1.25-2.34-.27-1.07-.2-2.21.23-3.36,1.47-4.11,7.17-8.05,14.18-9.8,2.46-.62,4.89-.93,7.23-.93,3.75,0,6.98.82,9.11,2.3,1.34.93,2.22,2.14,2.56,3.49.51,2.05-.27,4.36-2.19,6.5-2.61,2.94-7.06,5.38-12.23,6.67-2.45.61-4.88.92-7.22.92h0ZM13.33,63.44c.14.03.36.06.72.06.83,0,1.97-.17,3.12-.45,1.88-.47,3.07-1.06,3.53-1.41-.32-.11-.93-.23-1.83-.23-.79,0-1.61.1-2.36.28-1.8.45-2.88,1.31-3.18,1.75Z"/>
              <path class="cls-2" d="M22.38,54.57c3.63,0,6.75.78,8.78,2.19,1.2.84,2.02,1.9,2.33,3.15.48,1.93-.31,4.03-2.06,5.97-2.43,2.75-6.73,5.19-11.93,6.49-2.46.61-4.86.9-7.08.9-4.46,0-8.15-1.18-9.99-3.26-.54-.62-.93-1.32-1.12-2.09-.25-.98-.17-2,.21-3.02,1.38-3.84,6.76-7.68,13.77-9.44,2.47-.62,4.88-.91,7.09-.91M14.05,64.08c.85,0,2.01-.16,3.26-.47,2.42-.61,4.27-1.56,4.13-2.12-.09-.37-1.17-.66-2.58-.66-.77,0-1.64.09-2.49.3-2.42.61-3.84,1.98-3.7,2.55.07.27.58.41,1.37.41M22.38,53.4c-2.39,0-4.87.32-7.38.94-7.3,1.82-13.02,5.82-14.58,10.17-.46,1.25-.55,2.5-.24,3.7.22.92.69,1.79,1.37,2.57,2.05,2.32,6.01,3.66,10.87,3.66,2.39,0,4.86-.32,7.36-.94,5.27-1.32,9.84-3.82,12.52-6.85,2.05-2.28,2.87-4.78,2.32-7.02-.37-1.49-1.34-2.82-2.79-3.83-2.22-1.55-5.58-2.4-9.44-2.4h0ZM15.05,62.85c.43-.22.96-.44,1.61-.6.63-.16,1.32-.24,1.99-.26-.45.16-.99.33-1.62.49-.69.17-1.37.3-1.98.37h0Z"/>
            </g>
            <path class="cls-5" d="M19.5,72.38c-8.89,2.21-17.03.22-18.19-4.45-.25-.98-.17-2,.21-3.02,1.15,2.36,3.85,4.23,9.49,4.18,15.23-.14,19.86-7.47,20.35-10.66.08-.56,0-1.13-.2-1.67,1.2.84,2.02,1.9,2.33,3.15,1.16,4.67-5.11,10.24-13.99,12.47Z"/>
            <path class="cls-8" d="M10.23,63c3.92,1.12,11.94-.8,13.53-4.91-.23,5.19-9.79,7.75-13.53,4.91h0Z"/>
          </g>
          <path class="cls-8" d="M10.34,64.76c-.45,1.09-.68,2.07-.91,3.2-.52-1.08-.13-2.58.91-3.2h0Z"/>
          <path class="cls-8" d="M11.63,65.54c.07.85-.12,1.42-.27,2.24-.58-.63-.34-1.71.27-2.24h0Z"/>
          <path class="cls-8" d="M26.42,64.09c.9.08,1.35,1.36.73,2-.17-.77-.33-1.28-.73-2h0Z"/>
          <path class="cls-8" d="M29.31,59.16c.82-.48,2.29-.19,2.42.89-.79-.6-1.5-.58-2.42-.89h0Z"/>
          <path class="cls-8" d="M22.36,54.25c.37.62.36,1.3.02,1.91-.36-.59-.37-1.3-.02-1.91h0Z"/>
          <path class="cls-8" d="M24.54,54.14c.29.74.22,1.54-.2,2.2-.28-.74-.22-1.51.2-2.2h0Z"/>
          <path class="cls-4" d="M31.43,65.89c1.43-2.45,2.32-5.4.22-7.43-4.23-4.13-17-3.8-25.13,2.07-4.81,3.47-4.87,7.1-4.09,9.5-.54-.62-.93-1.32-1.12-2.09-.25-.98-.17-2,.21-3.02,1.38-3.84,6.76-7.68,13.77-9.44,6.5-1.63,12.6-.99,15.87,1.28,1.2.84,2.02,1.9,2.33,3.15.48,1.93-.31,4.03-2.06,5.97Z"/>
          <ellipse class="cls-4" cx="12.58" cy="57.59" rx="2.5" ry="1.08" transform="translate(-24.83 12.03) rotate(-27.07)"/>
          <ellipse class="cls-4" cx="15.41" cy="58.1" rx="1.17" ry=".6" transform="translate(-24.76 13.38) rotate(-27.07)"/>
        </g>
      </g>
    </g>
  </g>
</svg>