<?xml version="1.0" encoding="UTF-8"?>
<svg xmlns="http://www.w3.org/2000/svg" xmlns:xlink="http://www.w3.org/1999/xlink" viewBox="0 0 83.99 61.9">
  <defs>
    <style>
      .cls-1 {
        fill: #984f0c;
      }

      .cls-2 {
        fill: #a32c5d;
        mix-blend-mode: multiply;
        opacity: .28;
      }

      .cls-3 {
        fill: url(#radial-gradient-6);
      }

      .cls-4 {
        fill: url(#radial-gradient-5);
      }

      .cls-5 {
        fill: url(#radial-gradient-4);
      }

      .cls-6 {
        fill: url(#radial-gradient-3);
      }

      .cls-7 {
        fill: url(#radial-gradient-2);
      }

      .cls-8 {
        fill: url(#linear-gradient-14);
      }

      .cls-8, .cls-9, .cls-10, .cls-11, .cls-12, .cls-13, .cls-14, .cls-15, .cls-16, .cls-17, .cls-18, .cls-19, .cls-20, .cls-21, .cls-22, .cls-23, .cls-24, .cls-25 {
        mix-blend-mode: overlay;
      }

      .cls-8, .cls-9, .cls-10, .cls-11, .cls-12, .cls-13, .cls-17, .cls-18, .cls-19, .cls-20, .cls-21, .cls-22, .cls-23, .cls-24, .cls-25 {
        opacity: .64;
      }

      .cls-9 {
        fill: url(#linear-gradient-15);
      }

      .cls-10 {
        fill: url(#linear-gradient-13);
      }

      .cls-11 {
        fill: url(#linear-gradient-11);
      }

      .cls-12 {
        fill: url(#linear-gradient-12);
      }

      .cls-13 {
        fill: url(#linear-gradient-10);
      }

      .cls-26 {
        fill: url(#radial-gradient);
      }

      .cls-27 {
        fill: #141f2d;
      }

      .cls-28 {
        isolation: isolate;
      }

      .cls-14 {
        fill: #d1fffc;
      }

      .cls-29 {
        fill: none;
        stroke: #141f2d;
        stroke-linecap: round;
        stroke-linejoin: round;
        stroke-width: 1.75px;
      }

      .cls-30 {
        fill: #fff;
      }

      .cls-31 {
        fill: #ff0096;
      }

      .cls-16 {
        opacity: .59;
      }

      .cls-32 {
        fill: #ffd304;
      }

      .cls-17 {
        fill: url(#linear-gradient);
      }

      .cls-18 {
        fill: url(#linear-gradient-8);
      }

      .cls-19 {
        fill: url(#linear-gradient-3);
      }

      .cls-20 {
        fill: url(#linear-gradient-4);
      }

      .cls-21 {
        fill: url(#linear-gradient-2);
      }

      .cls-22 {
        fill: url(#linear-gradient-6);
      }

      .cls-23 {
        fill: url(#linear-gradient-9);
      }

      .cls-24 {
        fill: url(#linear-gradient-5);
      }

      .cls-25 {
        fill: url(#linear-gradient-7);
      }
    </style>
    <radialGradient id="radial-gradient" cx="431.76" cy="-49.43" fx="431.76" fy="-49.43" r="14.91" gradientTransform="translate(-205.89 -358.05) rotate(67.06)" gradientUnits="userSpaceOnUse">
      <stop offset=".26" stop-color="#37bdf9"/>
      <stop offset=".36" stop-color="#2fb1ec"/>
      <stop offset=".79" stop-color="#0f7fb7"/>
      <stop offset="1" stop-color="#036ca3"/>
    </radialGradient>
    <linearGradient id="linear-gradient" x1="432.45" y1="-49.95" x2="432.65" y2="-67.24" gradientTransform="translate(-205.89 -358.05) rotate(67.06)" gradientUnits="userSpaceOnUse">
      <stop offset=".13" stop-color="#fff"/>
      <stop offset=".36" stop-color="#fff" stop-opacity=".68"/>
      <stop offset=".59" stop-color="#fff" stop-opacity=".39"/>
      <stop offset=".78" stop-color="#fff" stop-opacity=".18"/>
      <stop offset=".92" stop-color="#fff" stop-opacity=".05"/>
      <stop offset="1" stop-color="#fff" stop-opacity="0"/>
    </linearGradient>
    <linearGradient id="linear-gradient-2" x1="314.16" y1="23.98" x2="314.2" y2="20.4" gradientTransform="translate(35.63 -297.83) rotate(90)" xlink:href="#linear-gradient"/>
    <linearGradient id="linear-gradient-3" x1="314.96" y1="24.42" x2="314.98" y2="22.71" gradientTransform="translate(36.46 -297.36) rotate(90)" xlink:href="#linear-gradient"/>
    <radialGradient id="radial-gradient-2" cx="325.22" cy="25.43" fx="325.22" fy="25.43" r="14.91" gradientTransform="translate(-188.87 -219.24) rotate(46.47)" gradientUnits="userSpaceOnUse">
      <stop offset=".26" stop-color="#ff3787"/>
      <stop offset=".39" stop-color="#ec347e"/>
      <stop offset=".8" stop-color="#b72e66"/>
      <stop offset="1" stop-color="#a32c5d"/>
    </radialGradient>
    <linearGradient id="linear-gradient-4" x1="325.9" y1="24.91" x2="326.1" y2="7.62" gradientTransform="translate(-188.87 -219.24) rotate(46.47)" xlink:href="#linear-gradient"/>
    <linearGradient id="linear-gradient-5" x1="187.73" y1="55.12" x2="187.77" y2="51.55" gradientTransform="translate(73.84 -159.07) rotate(90)" xlink:href="#linear-gradient"/>
    <linearGradient id="linear-gradient-6" x1="188.53" y1="55.56" x2="188.55" y2="53.86" gradientTransform="translate(75.12 -158.63) rotate(90)" xlink:href="#linear-gradient"/>
    <radialGradient id="radial-gradient-3" cx="205.64" cy="53.04" fx="205.64" fy="53.04" r="14.91" gradientTransform="translate(-129.97 -95.9) rotate(26.82)" gradientUnits="userSpaceOnUse">
      <stop offset=".18" stop-color="#81f937"/>
      <stop offset=".49" stop-color="#4cd52a"/>
      <stop offset=".83" stop-color="#17b11d"/>
      <stop offset="1" stop-color="#03a318"/>
    </radialGradient>
    <linearGradient id="linear-gradient-7" x1="206.33" y1="52.52" x2="206.53" y2="35.23" gradientTransform="translate(-129.97 -95.9) rotate(26.82)" xlink:href="#linear-gradient"/>
    <linearGradient id="linear-gradient-8" x1="66.28" y1="37.51" x2="66.32" y2="33.94" gradientTransform="translate(67.19 -28.2) rotate(90)" xlink:href="#linear-gradient"/>
    <linearGradient id="linear-gradient-9" x1="67.08" y1="37.95" x2="67.1" y2="36.25" gradientTransform="translate(68.87 -27.93) rotate(90)" xlink:href="#linear-gradient"/>
    <radialGradient id="radial-gradient-4" cx="119.84" cy="42.22" fx="119.84" fy="42.22" r="14.91" gradientTransform="translate(-63.79 -17.34) rotate(12.5)" xlink:href="#radial-gradient-2"/>
    <linearGradient id="linear-gradient-10" x1="120.53" y1="41.7" x2="120.73" y2="24.41" gradientTransform="translate(-63.79 -17.34) rotate(12.5)" xlink:href="#linear-gradient"/>
    <linearGradient id="linear-gradient-11" x1="-9.77" y1="-3.67" x2="-9.72" y2="-7.24" gradientTransform="translate(53.39 48.32)" xlink:href="#linear-gradient"/>
    <linearGradient id="linear-gradient-12" x1="-8.97" y1="-3.23" x2="-8.95" y2="-4.94" gradientTransform="translate(53.53 48.19)" xlink:href="#linear-gradient"/>
    <radialGradient id="radial-gradient-5" cx="96.4" cy="32.67" fx="96.4" fy="32.67" r="14.91" gradientTransform="translate(-34.01 8.21) rotate(7.11)" xlink:href="#radial-gradient"/>
    <linearGradient id="linear-gradient-13" x1="97.09" y1="32.15" x2="97.29" y2="14.86" gradientTransform="translate(-34.01 8.21) rotate(7.11)" xlink:href="#linear-gradient"/>
    <linearGradient id="linear-gradient-14" x1="-28.15" y1="-21.07" x2="-28.11" y2="-24.64" gradientTransform="translate(84.72 68.55)" xlink:href="#linear-gradient"/>
    <linearGradient id="linear-gradient-15" x1="-27.35" y1="-20.63" x2="-27.33" y2="-22.33" gradientTransform="translate(84.93 68.33)" xlink:href="#linear-gradient"/>
    <radialGradient id="radial-gradient-6" cx="249.94" cy="144.27" fx="249.94" fy="144.27" r="21.47" gradientTransform="translate(-120.44 -169.27) rotate(15.79)" gradientUnits="userSpaceOnUse">
      <stop offset=".1" stop-color="#ffc299"/>
      <stop offset=".75" stop-color="#fdc283"/>
    </radialGradient>
  </defs>
  <g class="cls-28">
    <g id="Layer_2" data-name="Layer 2">
      <g id="Layer_1-2" data-name="Layer 1">
        <g>
          <path class="cls-29" d="M14.38,10.14s6.2,31.72,51.89,33.28"/>
          <g>
            <g>
              <path class="cls-26" d="M19.51,23.13l-10.85-1.35c-.37-.05-.68-.29-.81-.64-.12-.32-.06-.67.14-.94l6.59-8.73c.19-.25.48-.39.79-.39.4,0,.76.24.92.61l4.26,10.07c.13.31.1.66-.09.93-.19.28-.49.45-.83.45-.01,0-.11,0-.12,0Z"/>
              <path class="cls-27" d="M15.36,11.4c.26,0,.51.14.63.42l4.26,10.07c.19.46-.15.95-.62.95-.03,0-.06,0-.08,0l-10.85-1.35c-.27-.03-.47-.21-.55-.44-.07-.2-.06-.45.09-.65l3.4-4.5,3.19-4.22c.14-.18.34-.27.54-.27M15.36,10.77h0c-.41,0-.79.19-1.04.52l-3.19,4.22-3.4,4.5c-.27.35-.33.82-.18,1.24.17.46.57.78,1.06.85l10.85,1.35c.06,0,.11,0,.16,0,.44,0,.84-.22,1.09-.59.24-.37.28-.83.11-1.23l-4.26-10.07c-.2-.48-.68-.8-1.2-.8h0Z"/>
            </g>
            <path class="cls-2" d="M19.54,22.82l-10.85-1.35c-.27-.03-.47-.21-.55-.44,5.21.92,8.4-1.15,7.08-4-.74-1.61-2.23-1.46-3.59-1.15l3.19-4.22c.32-.42.97-.34,1.17.15l4.26,10.07c.2.48-.19,1-.71.94Z"/>
            <path class="cls-17" d="M15.57,12.82c-.1-.24-.42-.28-.58-.07l-5.66,7.5c-.16.21-.03.51.23.54l9.32,1.16c.26.03.45-.23.35-.47l-3.66-8.65Z"/>
            <g class="cls-15">
              <path class="cls-30" d="M15.36,11.69c.12,0,.28.06.36.24l4.26,10.07c.05.12.04.25-.03.36-.07.11-.19.17-.36.17,0,0,0,0-.01,0l-10.85-1.35c-.15-.02-.26-.11-.31-.24-.02-.06-.06-.22.05-.37l3.4-4.5,3.19-4.22c.1-.13.23-.15.31-.15M15.36,11.4c-.2,0-.4.09-.54.27l-3.19,4.22-3.4,4.5c-.15.2-.17.44-.09.65.08.23.28.4.55.44l10.85,1.35s.06,0,.08,0c.48,0,.82-.49.62-.95l-4.26-10.07c-.11-.27-.37-.42-.63-.42h0Z"/>
            </g>
            <ellipse class="cls-21" cx="12.7" cy="16.35" rx=".92" ry=".48" transform="translate(-7.8 13.48) rotate(-44.19)"/>
            <ellipse class="cls-19" cx="12.55" cy="17.6" rx=".44" ry=".24" transform="translate(-8.72 13.73) rotate(-44.19)"/>
          </g>
          <g>
            <g>
              <path class="cls-7" d="M17.65,35.21c-.29,0-.56-.13-.75-.34-.22-.26-.3-.61-.2-.93l3.1-10.49c.13-.42.51-.71.95-.71.27,0,.53.11.72.31l7.53,7.93c.25.26.33.62.23.96-.1.34-.37.6-.72.68l-10.63,2.56c-.08.02-.16.03-.24.03Z"/>
              <path class="cls-27" d="M20.76,23.06c.18,0,.35.07.49.21l7.53,7.93c.36.38.17,1.01-.33,1.13l-10.63,2.56c-.06.01-.11.02-.16.02-.2,0-.38-.09-.51-.23-.14-.17-.21-.4-.14-.64l1.6-5.41,1.5-5.07c.09-.31.37-.49.66-.49M20.76,22.43h0c-.58,0-1.09.37-1.25.93l-1.5,5.08-1.6,5.41c-.12.43-.03.88.26,1.22.25.29.61.45.98.45.1,0,.21-.01.31-.04l10.63-2.56c.46-.11.81-.45.95-.9.13-.45.02-.93-.31-1.27l-7.53-7.93c-.25-.26-.58-.41-.94-.41h0Z"/>
            </g>
            <path class="cls-2" d="M28.45,32.33l-10.63,2.56c-.27.06-.51-.03-.67-.21,5.2-.97,7.46-4.03,5.22-6.23-1.26-1.24-2.6-.58-3.76.19l1.5-5.07c.15-.5.79-.65,1.15-.27l7.53,7.93c.36.38.17,1.01-.33,1.13Z"/>
            <path class="cls-20" d="M21.21,24.37c-.18-.19-.49-.11-.57.14l-2.66,9.01c-.07.25.15.48.4.42l9.13-2.2c.25-.06.34-.37.17-.56l-6.47-6.81Z"/>
            <g class="cls-15">
              <path class="cls-30" d="M20.76,23.35c.07,0,.18.02.28.12l7.53,7.93c.14.15.11.31.09.37-.04.13-.14.23-.28.27l-10.63,2.56s-.06.01-.1.01c-.11,0-.21-.05-.28-.13-.04-.05-.13-.18-.08-.36l1.6-5.41,1.5-5.07c.06-.19.23-.28.37-.28M20.76,23.06c-.28,0-.56.18-.66.49l-1.5,5.07-1.6,5.41c-.07.24,0,.47.14.64.12.14.31.23.51.23.05,0,.11,0,.16-.02l10.63-2.56c.51-.12.69-.75.33-1.13l-7.53-7.93c-.14-.14-.32-.21-.49-.21h0Z"/>
            </g>
            <ellipse class="cls-24" cx="19.76" cy="28.67" rx=".92" ry=".48" transform="translate(-14.6 34.34) rotate(-64.78)"/>
            <ellipse class="cls-22" cx="20.06" cy="29.9" rx=".44" ry=".24" transform="translate(-15.54 35.31) rotate(-64.78)"/>
          </g>
          <g>
            <g>
              <path class="cls-6" d="M30.6,45.02c-.17,0-.34-.04-.49-.13-.3-.17-.48-.47-.5-.81l-.61-10.92c-.01-.28.08-.54.27-.73.19-.2.45-.31.72-.31.16,0,.31.04.45.11l9.76,4.93c.32.16.52.47.54.83.02.36-.15.69-.45.89l-9.15,5.98c-.17.11-.35.16-.54.16Z"/>
              <path class="cls-27" d="M30,32.44c.1,0,.21.02.31.07l9.76,4.93c.47.24.5.89.07,1.18l-9.15,5.98c-.12.08-.25.11-.37.11-.12,0-.23-.03-.33-.09-.19-.11-.33-.3-.35-.55l-.31-5.63-.29-5.28c-.02-.41.31-.72.68-.72M30,31.81h0c-.36,0-.7.15-.95.41-.25.26-.37.6-.35.97l.29,5.28.31,5.63c.03.44.27.84.66,1.06.2.11.42.17.65.17.25,0,.5-.07.71-.21l9.15-5.98c.4-.26.61-.7.59-1.17-.03-.47-.29-.88-.71-1.09l-9.76-4.93c-.19-.09-.38-.14-.59-.14h0Z"/>
            </g>
            <path class="cls-2" d="M40.13,38.62l-9.15,5.98c-.23.15-.5.14-.7.02,4.57-2.67,5.67-6.31,2.82-7.63-1.61-.75-2.65.33-3.48,1.44l-.29-5.28c-.03-.52.52-.88.99-.64l9.76,4.93c.47.24.5.89.07,1.18Z"/>
            <path class="cls-25" d="M30.63,33.56c-.23-.12-.5.06-.49.32l.52,9.38c.01.26.3.41.52.26l7.86-5.14c.22-.14.2-.47-.03-.58l-8.38-4.24Z"/>
            <g class="cls-15">
              <path class="cls-30" d="M30,32.73c.06,0,.12.01.17.04l9.76,4.93c.18.09.21.26.21.32,0,.14-.06.27-.17.34l-9.15,5.98c-.07.04-.14.06-.21.06-.06,0-.13-.02-.19-.05-.06-.03-.19-.13-.2-.32l-.31-5.63-.29-5.28c0-.14.05-.23.1-.28.07-.08.18-.12.28-.12M30,32.44c-.37,0-.7.31-.68.72l.29,5.28.31,5.63c.01.25.16.45.35.55.1.06.22.09.33.09.12,0,.25-.04.37-.11l9.15-5.98c.44-.29.4-.94-.07-1.18l-9.76-4.93c-.1-.05-.21-.07-.31-.07h0Z"/>
            </g>
            <ellipse class="cls-18" cx="30.72" cy="38.1" rx=".92" ry=".48" transform="translate(-10.18 64.98) rotate(-84.43)"/>
            <ellipse class="cls-23" cx="31.42" cy="39.16" rx=".44" ry=".24" transform="translate(-10.61 66.62) rotate(-84.43)"/>
          </g>
          <g>
            <g>
              <path class="cls-5" d="M44.99,50.38c-.09,0-.18-.01-.26-.04-.33-.09-.59-.34-.69-.66l-3.29-10.43c-.1-.3-.04-.63.15-.88.19-.25.49-.41.8-.41.07,0,.15,0,.22.02l10.67,2.37c.35.08.62.33.73.67s.03.7-.21.97l-7.39,8.06c-.19.21-.45.32-.73.32Z"/>
              <path class="cls-27" d="M41.7,38.28s.1,0,.15.02l10.67,2.37c.51.11.71.74.36,1.12l-7.39,8.06c-.14.15-.32.22-.5.22-.06,0-.12,0-.18-.02-.21-.06-.4-.21-.47-.45l-1.7-5.38-1.59-5.05c-.14-.45.2-.88.65-.88M41.7,37.65h0c-.41,0-.8.2-1.05.53-.25.34-.32.76-.19,1.16l1.59,5.05,1.7,5.38c.13.42.47.75.9.87.12.03.23.05.35.05.36,0,.7-.15.96-.42l7.39-8.06c.32-.35.42-.83.28-1.28-.14-.45-.5-.78-.96-.88l-10.67-2.37c-.09-.02-.19-.03-.29-.03h0Z"/>
            </g>
            <path class="cls-2" d="M52.88,41.78l-7.39,8.06c-.19.2-.44.26-.68.2,3.77-3.72,3.94-7.51.85-8.09-1.74-.33-2.49.97-3.02,2.26l-1.59-5.05c-.16-.5.29-.98.8-.87l10.67,2.37c.51.11.71.74.36,1.12Z"/>
            <path class="cls-13" d="M42.43,39.23c-.25-.06-.47.18-.39.43l2.83,8.96c.08.25.39.32.57.13l6.35-6.92c.18-.19.08-.5-.18-.56l-9.17-2.03Z"/>
            <g class="cls-15">
              <path class="cls-30" d="M41.7,38.57h0s.06,0,.09,0l10.67,2.37c.2.04.26.2.28.26.04.13.01.27-.08.38l-7.39,8.06c-.1.1-.21.13-.28.13-.03,0-.07,0-.1-.01-.06-.02-.21-.08-.27-.26l-1.7-5.38-1.59-5.05c-.05-.16.01-.28.06-.34.07-.1.19-.16.31-.16M41.7,38.28c-.44,0-.79.44-.65.88l1.59,5.05,1.7,5.38c.08.24.26.39.47.45.06.02.12.02.18.02.18,0,.36-.07.5-.22l7.39-8.06c.35-.39.16-1.01-.36-1.12l-10.67-2.37c-.05-.01-.1-.02-.15-.02h0Z"/>
            </g>
            <ellipse class="cls-11" cx="43.63" cy="43.6" rx=".48" ry=".92" transform="translate(-6.13 7.15) rotate(-8.76)"/>
            <ellipse class="cls-12" cx="44.57" cy="44.46" rx=".24" ry=".44" transform="translate(-6.25 7.3) rotate(-8.76)"/>
          </g>
          <g>
            <g>
              <path class="cls-4" d="M58.47,53.05c-.06,0-.11,0-.17-.01-.34-.06-.62-.28-.75-.59l-4.25-10.07c-.13-.31-.1-.66.09-.93.19-.28.49-.45.82-.45.01,0,.11,0,.13,0l10.85,1.35c.36.04.65.27.79.6s.1.7-.12.98l-6.6,8.72c-.19.25-.48.39-.79.39Z"/>
              <path class="cls-27" d="M54.21,41.31s.06,0,.09,0l10.85,1.35c.52.06.77.67.46,1.08l-6.6,8.72c-.14.18-.34.27-.54.27-.04,0-.08,0-.12-.01-.21-.04-.41-.17-.51-.41l-2.2-5.2-2.06-4.87c-.19-.45.15-.94.62-.94M54.21,40.68h0c-.44,0-.84.22-1.08.58-.24.36-.29.82-.12,1.23l2.06,4.88,2.2,5.2c.17.41.54.7.98.78.08.01.15.02.23.02.41,0,.78-.19,1.03-.52l6.6-8.72c.28-.38.34-.86.16-1.3-.18-.43-.57-.73-1.04-.79l-10.85-1.35c-.06,0-.11-.01-.16-.01h0Z"/>
            </g>
            <path class="cls-2" d="M65.61,43.75l-6.6,8.72c-.17.22-.42.3-.66.26,3.41-4.05,3.21-7.85.08-8.13-1.77-.16-2.38,1.2-2.79,2.53l-2.06-4.87c-.2-.48.19-1,.71-.94l10.85,1.35c.52.06.77.67.46,1.08Z"/>
            <path class="cls-10" d="M54.97,42.19c-.26-.03-.45.23-.35.47l3.65,8.65c.1.24.42.28.58.07l5.67-7.49c.16-.21.03-.51-.23-.54l-9.32-1.16Z"/>
            <g class="cls-15">
              <path class="cls-30" d="M54.21,41.6s.03,0,.05,0l10.85,1.35c.2.02.28.17.31.23.05.13.04.27-.05.38l-6.6,8.72c-.08.1-.18.15-.3.15-.02,0-.04,0-.07,0-.06-.01-.22-.06-.29-.23l-2.2-5.2-2.06-4.87c-.05-.12-.04-.25.03-.36.07-.11.19-.17.32-.17M54.21,41.31c-.47,0-.81.49-.62.94l2.06,4.87,2.2,5.2c.1.23.3.37.51.41.04,0,.08.01.12.01.2,0,.4-.09.54-.27l6.6-8.72c.31-.42.06-1.02-.46-1.08l-10.85-1.35s-.06,0-.09,0h0Z"/>
            </g>
            <ellipse class="cls-8" cx="56.58" cy="46.43" rx=".48" ry=".92" transform="translate(-9.63 15.23) rotate(-14.14)"/>
            <ellipse class="cls-9" cx="57.59" cy="47.2" rx=".24" ry=".44" transform="translate(-9.78 15.5) rotate(-14.14)"/>
          </g>
        </g>
        <g>
          <path class="cls-31" d="M66.79,61.65c-.07,0-.14-.03-.19-.09l-2.98-3.55c-.06-.08-.08-.18-.04-.27s.13-.14.23-.14h4.76c.09,0,.17.05.22.12l2.06,3.55c.04.08.04.17,0,.25-.04.08-.13.12-.22.12h-3.84Z"/>
          <path class="cls-30" d="M68.57,57.85l2.06,3.55h-3.84l-2.98-3.55h4.76M68.57,57.35h-4.76c-.19,0-.37.11-.45.29-.08.18-.05.38.07.53l2.98,3.55c.1.11.24.18.38.18h3.84c.18,0,.34-.1.43-.25.09-.15.09-.35,0-.5l-2.06-3.55c-.09-.15-.25-.25-.43-.25h0Z"/>
        </g>
        <g>
          <path class="cls-31" d="M1.88,19.55c-.09,0-.17-.05-.22-.12l-1.38-2.37c-.05-.08-.04-.18,0-.25l1.21-2.04c.91-1.47,1.91-2.18,3.06-2.18.52,0,.99.15,1.37.26.25.08.46.14.61.14.09,0,.12-.03.13-.04.33-.34-.31-3.54-1.11-6.31-.03-.09,0-.2.08-.26l2.15-1.85s.1-.06.16-.06c.06,0,.13.02.17.07,1.69,1.65,4.7,4.26,5.56,4.26.51-.59-.27-3.87-.96-6.02-.03-.08,0-.18.05-.24l1.98-2.21c.05-.05.12-.08.19-.08,0,0,.01,0,.02,0,.08,0,.15.05.19.11.07.1,1.64,2.57,1.86,5.64.17,2.42-1.45,3.98-4.83,4.66-.23.05-.46.07-.68.07h0c-.95,0-1.66-.41-2.09-.76l.16,1.91c-.85,2.77-3.24,2.92-5.16,3.04-.23.01-.45.03-.67.04-1.5.12-1.67,3.15-1.62,4.31,0,.12-.07.22-.18.25-.02,0-.05.01-.07.01Z"/>
          <path class="cls-30" d="M14.94.5s1.6,2.48,1.82,5.53c.22,3.05-2.7,4.01-4.63,4.4-.22.04-.43.06-.63.06-1.54,0-2.4-1.17-2.4-1.17l.22,2.59c-.88,2.81-3.53,2.65-5.59,2.81-2.07.17-1.85,4.58-1.85,4.58l-1.38-2.37,1.21-2.04c1.02-1.65,2-2.06,2.85-2.06.84,0,1.53.41,1.97.41.12,0,.22-.03.31-.11.66-.66-1.05-6.56-1.05-6.56l2.15-1.85s4.45,4.33,5.74,4.33c.12,0,.21-.04.27-.11.72-.94-.99-6.23-.99-6.23l1.98-2.2M14.94,0c-.14,0-.28.06-.37.17l-1.98,2.2c-.12.13-.16.32-.1.49.82,2.55,1.31,5.05,1.11,5.68-.79-.16-3.32-2.24-5.3-4.18-.1-.09-.22-.14-.35-.14-.12,0-.23.04-.33.12l-2.15,1.85c-.15.13-.21.33-.15.52.7,2.43,1.31,5.33,1.17,6.03-.13-.02-.3-.07-.48-.13-.39-.12-.88-.28-1.44-.28-1.25,0-2.32.75-3.27,2.3L.07,16.67c-.09.16-.09.35,0,.51l1.38,2.37c.09.16.26.25.43.25.05,0,.09,0,.14-.02.22-.07.37-.27.36-.5-.05-1.02.1-3.95,1.39-4.05.22-.02.44-.03.67-.04,1.99-.12,4.48-.27,5.37-3.12.02-.06.03-.13.02-.19l-.12-1.38c.46.27,1.06.5,1.8.5.24,0,.49-.02.73-.07,4.39-.88,5.16-3.16,5.03-4.92-.23-3.14-1.83-5.66-1.9-5.76-.08-.13-.22-.22-.38-.23-.01,0-.03,0-.04,0h0Z"/>
        </g>
        <g>
          <rect class="cls-32" x="37.59" y="24.5" width="5.94" height="6.42" rx=".2" ry=".2"/>
          <path class="cls-30" d="M43.33,24.7v6.01h-5.53v-6.01h5.53M43.33,24.29h-5.53c-.23,0-.41.18-.41.41v6.01c0,.23.18.41.41.41h5.53c.23,0,.41-.18.41-.41v-6.01c0-.23-.18-.41-.41-.41h0Z"/>
        </g>
        <g>
          <g>
            <g>
              <path class="cls-3" d="M77.92,53.05c-2.99-.05-6.61-1.42-9.92-3.77-4.76-3.38-7.75-8.1-7.27-11.47.1-.71.35-1.34.73-1.88.49-.69,1.18-1.21,2.06-1.53.75-.28,1.62-.43,2.59-.43,3.04,0,6.72,1.38,10.1,3.77,4.11,2.92,6.98,6.9,7.3,10.14.12,1.23-.14,2.34-.75,3.21-.91,1.28-2.51,1.96-4.61,1.96h-.23ZM70.38,40.93c.19.35.88,1.13,2.13,2.02,1.1.78,2.08,1.24,2.57,1.34-.2-.5-.95-1.57-2.11-2.4-1.01-.72-1.96-.97-2.47-.97-.05,0-.08,0-.12,0Z"/>
              <path class="cls-27" d="M66.11,34.41c2.82,0,6.45,1.28,9.85,3.69,4.16,2.96,6.82,6.8,7.12,9.82.11,1.11-.1,2.11-.67,2.91-.85,1.19-2.37,1.77-4.25,1.77-.07,0-.15,0-.22,0-2.79-.05-6.34-1.33-9.67-3.69-4.74-3.37-7.53-7.9-7.09-11.05.09-.62.3-1.19.65-1.68.44-.63,1.08-1.09,1.85-1.37.71-.27,1.53-.4,2.44-.4M75.25,44.75c.14,0,.23-.03.28-.1.26-.37-.76-2.01-2.3-3.12-1.06-.75-2.1-1.06-2.73-1.06-.29,0-.5.06-.58.18-.26.36.78,1.55,2.33,2.65,1.25.89,2.44,1.45,2.99,1.45M66.11,33.53c-1.03,0-1.95.15-2.75.46-.95.35-1.72.92-2.26,1.69-.42.59-.7,1.29-.81,2.07-.5,3.58,2.49,8.36,7.46,11.89,3.38,2.4,7.09,3.8,10.17,3.85.08,0,.16,0,.24,0,2.26,0,3.98-.74,4.98-2.14.68-.96.97-2.17.83-3.51-.34-3.41-3.21-7.42-7.49-10.45-3.45-2.45-7.23-3.86-10.36-3.86h0ZM73.86,43.28c-.32-.18-.69-.41-1.09-.7-.48-.34-.88-.67-1.19-.96.34.14.73.34,1.14.63.46.33.84.69,1.14,1.03h0Z"/>
            </g>
            <path class="cls-16" d="M68.26,48.92c-5.68-4.04-8.56-9.74-6.44-12.73.44-.63,1.08-1.09,1.85-1.37-.8,1.83-.54,4.32,2.29,7.56,7.63,8.75,14.16,7.79,16.25,6.49.37-.23.65-.56.87-.94.11,1.11-.1,2.11-.67,2.91-2.13,2.98-8.46,2.12-14.14-1.92Z"/>
            <path class="cls-1" d="M69.1,38.91c1.35,2.86,6.31,6.48,9.54,5.4-3.16,2.43-9.3-1.8-9.54-5.4h0Z"/>
          </g>
          <path class="cls-1" d="M68.14,39.84c-.87.29-1.5.61-2.3,1.06.37-.83,1.43-1.35,2.3-1.06h0Z"/>
          <path class="cls-1" d="M68.32,40.97c-.46.46-.88.63-1.43.96.09-.66.82-1.04,1.43-.96h0Z"/>
          <path class="cls-1" d="M76.49,48.82c.4.56-.12,1.46-.79,1.41.4-.52.57-.8.79-1.41h0Z"/>
          <path class="cls-1" d="M80.77,48.04c.68.23,1.24,1.24.69,1.84-.04-.76-.41-1.16-.69-1.84h0Z"/>
          <path class="cls-1" d="M80.17,41.59c-.19.52-.55.84-1.09.96.17-.51.57-.85,1.09-.96h0Z"/>
          <path class="cls-1" d="M81.31,42.79c-.29.53-.77.88-1.37.97.3-.55.76-.87,1.37-.97h0Z"/>
          <path class="cls-14" d="M77.93,52.6c2.13-.39,4.27-1.33,4.41-3.56.3-4.49-6.22-11.72-13.65-13.52-4.39-1.07-6.52.7-7.52,2.34.09-.62.3-1.19.65-1.68.44-.63,1.08-1.09,1.85-1.37,2.91-1.11,7.79.1,12.28,3.29,4.16,2.96,6.82,6.8,7.12,9.82.11,1.11-.1,2.11-.67,2.91-.88,1.23-2.49,1.82-4.47,1.77Z"/>
          <ellipse class="cls-14" cx="73.39" cy="37.58" rx=".82" ry="1.9" transform="translate(10.72 91.17) rotate(-67.65)"/>
          <ellipse class="cls-14" cx="74.5" cy="39.48" rx=".46" ry=".89" transform="translate(9.65 93.37) rotate(-67.65)"/>
        </g>
      </g>
    </g>
  </g>
</svg>