<?xml version="1.0" encoding="UTF-8"?>
<svg xmlns="http://www.w3.org/2000/svg" xmlns:xlink="http://www.w3.org/1999/xlink" viewBox="0 0 72.43 60.64">
  <defs>
    <style>
      .cls-1 {
        fill: #454547;
      }

      .cls-2 {
        fill: #fcfcf7;
      }

      .cls-3 {
        fill: #d8dfe8;
      }

      .cls-4 {
        fill: #323234;
      }

      .cls-5 {
        fill: #0cf045;
      }

      .cls-6 {
        fill: #141f2d;
      }

      .cls-7 {
        fill: #0a0306;
        opacity: .51;
      }

      .cls-7, .cls-8, .cls-9, .cls-10 {
        mix-blend-mode: overlay;
      }

      .cls-11 {
        isolation: isolate;
      }

      .cls-12 {
        fill: #fff;
      }

      .cls-13 {
        fill: #ff0096;
      }

      .cls-14 {
        fill: #ffd304;
      }

      .cls-15 {
        fill: #44aaf7;
      }

      .cls-16 {
        fill: #a063c1;
      }

      .cls-17 {
        fill: #9bdbea;
      }

      .cls-8 {
        fill: url(#linear-gradient);
      }

      .cls-8, .cls-9, .cls-10 {
        opacity: .64;
      }

      .cls-9 {
        fill: url(#linear-gradient-3);
      }

      .cls-10 {
        fill: url(#linear-gradient-2);
      }
    </style>
    <linearGradient id="linear-gradient" x1="150.8" y1="-23.77" x2="152.5" y2="-8.98" gradientTransform="translate(-106.56 -9.22) rotate(15.11)" gradientUnits="userSpaceOnUse">
      <stop offset="0" stop-color="#fff"/>
      <stop offset=".27" stop-color="#fff" stop-opacity=".68"/>
      <stop offset=".53" stop-color="#fff" stop-opacity=".39"/>
      <stop offset=".75" stop-color="#fff" stop-opacity=".18"/>
      <stop offset=".91" stop-color="#fff" stop-opacity=".05"/>
      <stop offset="1" stop-color="#fff" stop-opacity="0"/>
    </linearGradient>
    <linearGradient id="linear-gradient-2" x1="-153.89" y1="81.33" x2="-148.67" y2="84.48" gradientTransform="translate(196.2 -53.67) scale(1 .85)" xlink:href="#linear-gradient"/>
    <linearGradient id="linear-gradient-3" x1="-153.68" y1="81.33" x2="-148.46" y2="84.47" gradientTransform="translate(196.45 -54.83) scale(1 .85)" xlink:href="#linear-gradient"/>
  </defs>
  <g class="cls-11">
    <g id="Layer_2" data-name="Layer 2">
      <g id="Layer_1-2" data-name="Layer 1">
        <g>
          <g>
            <g>
              <path class="cls-2" d="M47.3,16.65c-.65,0-1.31-.09-1.95-.26-1.61-.43-2.99-1.36-3.88-2.61-.92-1.28-1.22-2.75-.84-4.12.02-.09.04-.15.08-.23.61-2.05,2.82-3.48,5.45-3.48.65,0,1.31.09,1.95.26,3.14.85,5.26,3.61,4.82,6.29-.03.15-.06.3-.1.44-.6,2.21-2.82,3.7-5.53,3.7Z"/>
              <path class="cls-6" d="M46.16,6.46c.59,0,1.21.08,1.82.24,2.94.8,4.85,3.31,4.46,5.73-.02.13-.05.27-.08.39-.55,2.04-2.64,3.33-5.05,3.33-.59,0-1.2-.08-1.82-.24-3.1-.84-5.06-3.58-4.38-6.12.01-.05.02-.09.05-.13.6-1.96,2.65-3.2,5-3.2M46.16,5.46h0c-2.83,0-5.2,1.54-5.93,3.85-.03.07-.05.14-.07.23-.83,3.07,1.45,6.37,5.08,7.35.68.18,1.38.28,2.08.28,2.94,0,5.35-1.64,6.01-4.07.04-.15.07-.31.1-.47.49-3-1.74-5.95-5.18-6.88-.68-.18-1.38-.28-2.08-.28h0Z"/>
            </g>
            <path class="cls-3" d="M52.35,12.82c-.69,2.54-3.76,3.92-6.86,3.09s-5.06-3.58-4.38-6.12c.01-.05.02-.09.05-.13,1.93-1.19,4.61-1.82,7.98-.12,1.53.77,2.59,1.78,3.3,2.9-.02.13-.05.27-.08.39Z"/>
            <path class="cls-2" d="M46.16,6.46v.25c.58,0,1.17.08,1.75.24,2.78.75,4.65,3.14,4.28,5.44-.02.12-.05.25-.08.37-.51,1.88-2.44,3.15-4.8,3.15-.58,0-1.17-.08-1.75-.24-2.97-.8-4.85-3.41-4.2-5.82,0-.03.01-.06.04-.13.55-1.81,2.46-3.02,4.76-3.02v-.25M46.16,6.46c-2.35,0-4.4,1.24-5,3.2-.02.05-.03.08-.05.13-.69,2.54,1.28,5.29,4.38,6.12.61.17,1.22.24,1.82.24,2.41,0,4.5-1.29,5.05-3.33.03-.13.06-.26.08-.39.39-2.42-1.52-4.94-4.46-5.73-.61-.17-1.23-.24-1.82-.24h0Z"/>
          </g>
          <g>
            <path class="cls-2" d="M47.7,48.89c-8.99,0-20.57-4.03-25.27-8.81-1.58-1.61-2.37-3.24-2.35-4.86.02-1.06.27-2.26.77-3.55.3-.77.69-1.58,1.19-2.47.01-.03.03-.05.05-.07.23-.41.48-.82.75-1.23,1.27-1.98,2.95-4.05,4.98-6.15,6.08-6.27,13.64-11,17.57-11,.39,0,.75.04,1.07.13l.15.04c3.58.82,7.41,8,9.65,14.77.01.02.02.05.03.08h0c1.31,4,2.12,7.92,2.32,11.32l.02.33c.09,1.62.03,3.11-.19,4.41-.22,1.34-.6,2.5-1.13,3.44-1.33,2.36-4.65,3.61-9.62,3.61Z"/>
            <path class="cls-6" d="M45.39,11.26c.34,0,.66.04.94.11l.15.04h.02s.03.01.05.02c3.04.7,6.85,7.17,9.26,14.47,0,.01.02.01.01.02,1.23,3.74,2.09,7.69,2.3,11.2,0,.1.02.21.02.32.09,1.56.04,3.01-.18,4.31-.2,1.25-.55,2.36-1.07,3.27-1.33,2.36-4.84,3.36-9.19,3.36-10.96,0-27.22-6.34-27.12-13.16.01-1.05.28-2.19.74-3.38.31-.79.7-1.58,1.16-2.4,0,0,0,0,0,0,0,0,0,0,0,0,.24-.42.49-.84.77-1.26,1.3-2.03,3.01-4.11,4.92-6.08,5.73-5.91,13.27-10.84,17.21-10.84M45.39,10.26h0c-3.54,0-10.83,3.83-17.93,11.15-2.06,2.12-3.75,4.22-5.05,6.23-.24.35-.47.74-.74,1.22-.02.03-.05.07-.07.1-.51.91-.91,1.74-1.22,2.53-.52,1.35-.79,2.6-.8,3.72-.03,1.76.81,3.51,2.49,5.22,4.78,4.86,16.52,8.96,25.63,8.96,5.16,0,8.64-1.34,10.06-3.87.56-.99.96-2.21,1.19-3.6.22-1.33.29-2.85.19-4.53,0-.04,0-.11-.01-.18,0-.04,0-.08,0-.11-.21-3.48-1.02-7.44-2.35-11.48h0s-.02-.07-.04-.1c-2.29-6.9-6.24-14.21-9.96-15.06l-.18-.05c-.36-.1-.77-.15-1.2-.15h0Z"/>
          </g>
          <path class="cls-3" d="M58.14,37.45c-2.01-4.95-4.9-10.62-11.07-13.88-11.32-5.97-21.31,2.45-24.59,5.88.24-.42.49-.84.77-1.26,1.3-2.03,3.01-4.11,4.92-6.08,6.23-6.42,14.59-11.69,18.15-10.73l.15.04h.02s.03.01.05.02c3.04.7,6.85,7.17,9.26,14.47,0,.01.02.01.01.02,1.23,3.74,2.09,7.69,2.3,11.2,0,.1.02.21.02.32Z"/>
          <path class="cls-3" d="M56.89,45.04c-4.67,8.31-36.45-.27-36.31-9.8.01-1.05.28-2.19.74-3.38,1.7,3.86,5.9,8.53,15.97,11.46,9.58,2.78,16.29.99,20.67-1.56-.2,1.25-.55,2.36-1.07,3.27Z"/>
          <path class="cls-2" d="M45.39,11.86h0c.29,0,.55.03.78.09l.17.05s.06.02.07.02c3.94.9,10.47,14.31,11.11,25.15.11,1.7.06,3.21-.16,4.49-.2,1.21-.53,2.25-1,3.08-1.11,1.97-4.19,3.05-8.67,3.05-8.74,0-19.96-3.88-24.49-8.48-1.37-1.39-2.06-2.76-2.04-4.08.01-.94.25-2,.69-3.17.44-1.13,1.08-2.33,1.88-3.57,4.99-7.78,16.52-16.64,21.64-16.64M45.39,11.27c-5.26,0-16.92,8.78-22.14,16.92-.81,1.25-1.47,2.48-1.93,3.67-.45,1.18-.72,2.32-.74,3.38-.1,6.83,16.16,13.16,27.12,13.16,4.35,0,7.86-1,9.19-3.36.52-.92.87-2.02,1.07-3.27.23-1.39.27-2.95.16-4.63-.61-10.36-6.97-24.64-11.57-25.7t-.05-.01h-.02s-.15-.05-.15-.05c-.28-.08-.6-.11-.94-.11h0Z"/>
          <g>
            <g>
              <path class="cls-1" d="M41.87,38.91c-.85,0-1.74-.12-2.63-.36-3.18-.86-5.31-2.9-4.84-4.65.19-.69.76-1.24,1.66-1.57.62-.24,1.39-.37,2.24-.37s1.74.13,2.62.36c1.79.48,3.36,1.4,4.2,2.45.6.74.82,1.5.64,2.19-.32,1.2-1.81,1.94-3.89,1.94Z"/>
              <path class="cls-4" d="M38.29,32.28c.79,0,1.66.11,2.54.35,1.78.48,3.26,1.37,4.03,2.34.51.63.74,1.29.58,1.9-.29,1.08-1.73,1.7-3.57,1.7-.79,0-1.66-.11-2.55-.35-2.95-.8-5.02-2.69-4.61-4.24.16-.61.7-1.07,1.46-1.35.59-.23,1.32-.35,2.12-.35M38.29,31.63h0c-.89,0-1.7.14-2.36.39-.99.37-1.64,1-1.85,1.79-.52,1.92,1.71,4.14,5.07,5.05.92.25,1.84.38,2.72.38,2.23,0,3.84-.84,4.21-2.19.22-.8-.03-1.66-.7-2.49-.88-1.1-2.51-2.06-4.37-2.56-.91-.24-1.84-.37-2.71-.37h0Z"/>
            </g>
            <path class="cls-2" d="M44.86,34.98c-1.12.3-2.81.22-4.59-.26s-3.28-1.27-4.1-2.09c1.16-.45,2.88-.48,4.66,0s3.26,1.37,4.03,2.34Z"/>
          </g>
          <g>
            <g>
              <path class="cls-2" d="M52.27,42.45c-.51,0-1.06-.11-1.58-.33-.73-.3-1.34-.77-1.73-1.33-.41-.59-.51-1.22-.29-1.75.28-.68,1.04-1.09,2.03-1.09.51,0,1.06.11,1.58.33.73.3,1.34.77,1.73,1.33.41.59.51,1.22.29,1.75-.28.68-1.04,1.09-2.03,1.09Z"/>
              <path class="cls-4" d="M50.7,38.24c.46,0,.96.1,1.46.3,1.4.58,2.23,1.79,1.86,2.7-.24.59-.93.91-1.76.91-.46,0-.96-.1-1.46-.3-1.4-.58-2.23-1.79-1.86-2.7.24-.59.93-.91,1.76-.91M50.7,37.64h0c-1.11,0-1.98.48-2.31,1.28-.51,1.23.45,2.76,2.18,3.47.55.23,1.14.35,1.69.35,1.11,0,1.98-.48,2.31-1.28.51-1.23-.45-2.76-2.18-3.47-.55-.23-1.14-.35-1.69-.35h0Z"/>
            </g>
            <path class="cls-4" d="M52.64,37.25s.2-1.51-.64-3.71.73-4,2.39-2.57,1.49,5.48-1.75,6.29Z"/>
            <path class="cls-4" d="M50.6,42.86s-.91,1.64-3.12,2.75.36,3,2.81,1.9,1.54-3.91.31-4.66Z"/>
          </g>
          <g>
            <g>
              <path class="cls-2" d="M29.25,36.21c-.2,0-.4-.01-.61-.04-1.69-.23-2.89-1.32-2.73-2.48.14-1,1.24-1.69,2.69-1.69.2,0,.4.01.61.04,1.69.23,2.89,1.32,2.73,2.48-.14,1-1.24,1.69-2.69,1.69h0Z"/>
              <path class="cls-4" d="M28.59,32.29c.19,0,.38.01.57.04,1.5.21,2.61,1.17,2.48,2.14-.12.85-1.14,1.43-2.39,1.43-.19,0-.38-.01-.57-.04-1.5-.21-2.61-1.17-2.48-2.14.12-.85,1.14-1.43,2.39-1.43M28.59,31.7c-1.6,0-2.83.8-2.98,1.95-.09.67.21,1.36.83,1.89.55.48,1.32.81,2.16.92.22.03.44.04.65.04,1.6,0,2.83-.8,2.98-1.95.09-.67-.21-1.36-.83-1.89-.55-.48-1.32-.81-2.16-.92-.22-.03-.44-.04-.65-.04h0Z"/>
            </g>
            <path class="cls-4" d="M29.41,30.98s.59-1.4,2.42-2.88,1.38-3.82-.77-3.43-4.04,3.98-1.65,6.31Z"/>
            <path class="cls-4" d="M28.34,36.85s-.04,1.87,1.31,3.95-1.82,2.42-3.38.23.64-4.16,2.07-4.18Z"/>
          </g>
          <g>
            <path class="cls-17" d="M57.81,35.08c-.43-1.74-1-3.33-1.71-4.81-3.64-7.55-11.07-9.34-11.98-9.53l2.47-9.16c4.23,1.08,9.99,13.4,11.22,23.5Z"/>
            <path class="cls-6" d="M46.75,11.46h0,0M46.68,11.74c3.83,1.18,9.05,12.02,10.71,21.43-.34-1.03-.73-2.01-1.18-2.96-3.54-7.34-10.65-9.27-11.94-9.57l2.41-8.91M46.56,11.31s-.05.07-.06.12l-2.54,9.4s.05.01.05.01c.7.13,8.28,1.83,11.97,9.48,1.08,2.25,1.73,4.58,2.14,6.82-.61-10.36-6.98-24.65-11.57-25.7.01-.05.03-.1,0-.13h0Z"/>
          </g>
          <g>
            <path class="cls-16" d="M24.53,26.55c5.57-7.53,15.88-15.15,20.85-15.15.33,0,.64.04.91.11l.12.03-2.48,9.15c-.55-.18-2.56-.77-5.31-.77-3.62,0-6.93,1-9.84,2.98-1.47,1-2.89,2.23-4.25,3.66Z"/>
            <path class="cls-6" d="M46.75,11.46h0,0M45.39,11.52c.32,0,.61.03.86.1l-2.41,8.91c-.64-.2-2.6-.74-5.22-.74-3.64,0-6.98,1.01-9.91,3-.96.66-1.91,1.41-2.82,2.25,5.71-6.87,15.01-13.52,19.5-13.52M45.39,11.27c-5.25,0-16.92,8.78-22.14,16.92,1.53-1.85,3.4-3.69,5.6-5.19,3.44-2.33,6.97-2.95,9.77-2.95,2.9,0,5,.67,5.35.79.03,0,.05.01.05.01l2.54-9.4c.01-.05.03-.1,0-.13-.03.02-.05.07-.06.12h-.03s-.15-.05-.15-.05c-.28-.08-.6-.11-.94-.11h0Z"/>
          </g>
          <path class="cls-7" d="M55.81,25.91c-1.78-3.22-4.31-6.6-7.72-8.9-5.65-3.82-14.63,1.31-19.92,5.09,6.23-6.42,14.59-11.69,18.15-10.73l.15.04h.02s.03.01.05.02c3.04.7,6.85,7.17,9.26,14.47Z"/>
          <path class="cls-8" d="M28.99,21.96s13.7-12.04,18.2-9.6,8.83,16.04,8.83,16.04"/>
          <g>
            <ellipse class="cls-10" cx="40.62" cy="14.5" rx="2" ry=".91" transform="translate(-2.26 19.09) rotate(-25.76)"/>
            <ellipse class="cls-9" cx="43.28" cy="14.46" rx=".88" ry=".45" transform="translate(-1.99 20.24) rotate(-25.76)"/>
          </g>
        </g>
        <g>
          <path class="cls-5" d="M17.88,22.91c-.07,0-.14-.03-.18-.08l-2.27-2.49c-.05-.06-.08-.14-.06-.21.01-.08.06-.14.13-.18l2.27-1.14s.07-.03.11-.03c.02,0,.05,0,.07,0,.86.25,3.92,1.73,4.05,1.79.09.04.14.13.14.23s-.06.18-.15.23l-4.01,1.85s-.07.02-.1.02Z"/>
          <path class="cls-12" d="M17.88,19.04c.85.25,4.01,1.78,4.01,1.78l-4.01,1.85-2.27-2.49,2.27-1.14M17.88,18.54c-.08,0-.15.02-.22.05l-2.27,1.14c-.14.07-.24.2-.27.36-.03.15.02.31.12.43l2.27,2.49c.1.11.23.16.37.16.07,0,.14-.01.21-.05l4.01-1.85c.18-.08.29-.26.29-.45,0-.19-.11-.37-.28-.45-.13-.06-3.21-1.55-4.09-1.81-.05-.01-.09-.02-.14-.02h0Z"/>
        </g>
        <g>
          <path class="cls-15" d="M66.48,16c-2.1,0-3.46-1.53-4.05-4.56-.23-1.19.23-2.07.63-2.57l-1.75.14c-2.6-.81-2.73-3.05-2.83-4.84-.01-.21-.02-.42-.04-.63-.11-1.44-3.12-1.52-3.72-1.52-.17,0-.29,0-.29,0-.11,0-.21-.07-.24-.18-.03-.11.02-.23.12-.29l2.22-1.28s.08-.03.12-.03.09.01.13.04l1.9,1.14c2.59,1.62,2.08,3.21,1.78,4.16-.09.29-.19.59-.11.67,0,0,.08.07.48.07,1.57,0,5.37-1.08,5.41-1.09.02,0,.05,0,.07,0,.07,0,.14.03.19.09l1.72,2.02c.08.1.08.25-.01.34-2.37,2.41-4.24,4.85-3.99,5.22.05.04.2.12.64.12,1.61,0,4.92-1.05,4.96-1.06.02,0,.05-.01.08-.01.06,0,.12.02.17.07l2.05,1.86c.06.05.09.13.08.21,0,.08-.05.15-.11.19-.1.06-2.41,1.52-5.29,1.71-.1,0-.2.01-.3.01h0Z"/>
          <path class="cls-12" d="M56.64.5l1.9,1.14c3.49,2.18,1.01,4.18,1.63,4.8.1.1.34.15.66.15,1.63,0,5.47-1.1,5.47-1.1l1.72,2.02s-4.84,4.92-3.96,5.59c.15.12.43.17.79.17,1.67,0,5.03-1.07,5.03-1.07l2.05,1.86s-2.32,1.48-5.17,1.68c-.1,0-.19,0-.28,0-2.62,0-3.46-2.61-3.81-4.35-.35-1.8,1.04-2.83,1.04-2.83l-2.42.2c-2.62-.84-2.46-3.31-2.6-5.24-.12-1.62-3.03-1.75-3.97-1.75-.18,0-.29,0-.29,0l2.22-1.28M56.64,0c-.09,0-.17.02-.25.07l-2.22,1.28c-.2.11-.3.35-.23.57.06.21.26.36.48.36,0,0,.01,0,.02,0,0,0,.11,0,.27,0,1.56,0,3.4.34,3.48,1.29.02.2.03.41.04.62.11,1.87.24,4.2,2.91,5.06.05.02.1.02.15.02.01,0,.03,0,.04,0l1.23-.1c-.32.56-.57,1.34-.38,2.33.62,3.16,2.06,4.76,4.3,4.76.1,0,.21,0,.32-.01,2.94-.2,5.31-1.69,5.4-1.75.13-.08.22-.22.23-.38s-.05-.31-.16-.41l-2.05-1.86c-.09-.08-.21-.13-.34-.13-.05,0-.1,0-.15.02-.03.01-3.31,1.04-4.88,1.04-.19,0-.31-.02-.38-.03.19-.74,2.11-3.05,3.91-4.88.18-.18.19-.48.02-.67l-1.72-2.02c-.1-.11-.24-.18-.38-.18-.05,0-.09,0-.14.02-.04.01-3.8,1.08-5.34,1.08-.12,0-.2,0-.25-.01.02-.11.07-.27.11-.4.3-.95.87-2.73-1.88-4.45l-1.91-1.15c-.08-.05-.17-.07-.26-.07h0Z"/>
        </g>
        <g>
          <path class="cls-13" d="M2.92,60.39c-.07,0-.13-.03-.18-.08l-2.42-2.57c-.06-.07-.08-.16-.06-.25l.92-2.92c1.11-3.31,2.9-3.69,4.14-3.69.28,0,.54.02.78.04.19.01.37.03.53.03.35,0,.45-.07.49-.15.35-.56-1.37-4.34-3.24-7.67-.05-.08-.04-.19.02-.27l2.16-2.95c.05-.07.12-.1.2-.1.04,0,.09.01.13.04.06.04,6.23,3.74,8.1,3.74.1,0,.28-.01.32-.1.42-.92-1.65-4.96-3.06-7.3-.05-.08-.05-.17,0-.25l1.84-3.35c.04-.07.1-.12.18-.13.01,0,.02,0,.04,0,.06,0,.13.02.17.07.11.11,2.79,2.73,3.97,6.51.92,2.94-.65,5.36-4.66,7.18-.57.26-1.15.39-1.74.39h0c-.86,0-1.57-.27-2.03-.52l.82,2.52c-.25,3.65-3.18,4.53-5.53,5.23-.28.08-.56.17-.83.25-2.29.73-.83,5.92-.81,5.98.03.11-.02.23-.12.29-.04.02-.08.03-.12.03Z"/>
          <path class="cls-12" d="M13.81,32.72s2.73,2.64,3.9,6.4c1.17,3.76-2.21,5.83-4.52,6.88-.59.27-1.14.37-1.64.37-1.47,0-2.49-.86-2.49-.86l1.04,3.19c-.28,3.79-3.65,4.36-6.2,5.17-2.55.81-.98,6.28-.98,6.28l-2.42-2.57.92-2.92c1.04-3.09,2.62-3.52,3.9-3.52.5,0,.95.07,1.31.07.33,0,.57-.05.7-.26.64-1.02-3.24-7.93-3.24-7.93l2.16-2.95s6.26,3.78,8.23,3.78c.28,0,.47-.08.55-.25.62-1.39-3.07-7.53-3.07-7.53l1.84-3.35M13.81,32.22s-.05,0-.07,0c-.15.02-.29.12-.36.25l-1.84,3.35c-.09.16-.08.35,0,.5,1.67,2.78,3.28,6.19,3.06,7.01-.02,0-.06,0-.11,0-1.5,0-6.26-2.67-7.97-3.71-.08-.05-.17-.07-.26-.07-.15,0-.31.07-.4.2l-2.16,2.95c-.12.16-.13.37-.03.54,1.71,3.05,3.43,6.74,3.24,7.43,0,0,0,0-.01,0-.03,0-.1.02-.26.02s-.32-.01-.51-.03c-.25-.02-.52-.04-.8-.04-1.32,0-3.22.4-4.38,3.86L.02,57.42c-.05.17-.01.36.11.49l2.42,2.57c.1.1.23.16.36.16.08,0,.17-.02.25-.07.2-.11.3-.35.23-.57-.4-1.39-1.06-5.12.65-5.67.27-.09.54-.17.82-.25,2.42-.73,5.44-1.63,5.72-5.36,0-.06,0-.13-.02-.19l-.64-1.98c.44.17.99.31,1.62.31s1.25-.14,1.85-.41c4.14-1.88,5.75-4.4,4.79-7.48-1.19-3.84-3.92-6.5-4.03-6.61-.09-.09-.22-.14-.35-.14h0Z"/>
        </g>
        <g>
          <rect class="cls-14" x="62.73" y="27.25" width="5.62" height="6.06" rx=".25" ry=".25"/>
          <path class="cls-12" d="M68.09,27.5v5.56h-5.12v-5.56h5.12M68.09,27h-5.12c-.28,0-.5.22-.5.5v5.56c0,.28.22.5.5.5h5.12c.28,0,.5-.22.5-.5v-5.56c0-.28-.22-.5-.5-.5h0Z"/>
        </g>
      </g>
    </g>
  </g>
</svg>