<?xml version="1.0" encoding="UTF-8"?>
<svg id="Layer_2" data-name="Layer 2" xmlns="http://www.w3.org/2000/svg" xmlns:xlink="http://www.w3.org/1999/xlink" viewBox="0 0 56.19 43.05">
  <defs>
    <style>
      .cls-1, .cls-2, .cls-3 {
        fill: none;
      }

      .cls-2 {
        stroke: url(#radial-gradient);
        stroke-width: 5px;
      }

      .cls-2, .cls-3 {
        stroke-linecap: round;
        stroke-linejoin: round;
      }

      .cls-4 {
        fill: url(#linear-gradient);
      }

      .cls-3 {
        stroke: #141f2d;
        stroke-width: 8px;
      }

      .cls-5 {
        clip-path: url(#clippath);
      }
    </style>
    <clipPath id="clippath">
      <polygon class="cls-1" points="11.86 0 17 2.27 56.19 19.56 7.82 43.05 0 37.36 11.86 0"/>
    </clipPath>
    <linearGradient id="linear-gradient" x1="118.86" y1="37.55" x2="118.86" y2="-95.46" gradientUnits="userSpaceOnUse">
      <stop offset="0" stop-color="#3281bc"/>
      <stop offset=".12" stop-color="#2c6b9b"/>
      <stop offset=".29" stop-color="#255377"/>
      <stop offset=".46" stop-color="#20405a"/>
      <stop offset=".63" stop-color="#1c3245"/>
      <stop offset=".8" stop-color="#1a2a39"/>
      <stop offset=".96" stop-color="#1a2835"/>
    </linearGradient>
    <radialGradient id="radial-gradient" cx="118.86" cy="-28.96" fx="118.86" fy="-28.96" r="100.99" gradientUnits="userSpaceOnUse">
      <stop offset=".68" stop-color="#ff73bc"/>
      <stop offset=".97" stop-color="#e73a80"/>
    </radialGradient>
  </defs>
  <g id="Layer_1-2" data-name="Layer 1">
    <g class="cls-5">
      <g>
        <path class="cls-4" d="M118.86-95.46C46.69-95.46-3.69-56.61-3.69-20.59-3.69-9.91,2.36-.99,13.27,6.12l-7.49,29.15c-.37,1.47,1.11,2.73,2.5,2.13l40.73-17.56c19.32,4.38,43.08,6.62,69.86,6.62,72.17,0,122.55-16.22,122.55-47.04,0-38.47-50.38-74.87-122.55-74.87Z"/>
        <path class="cls-3" d="M118.86-95.46C46.69-95.46-3.69-56.61-3.69-20.59-3.69-9.91,2.36-.99,13.27,6.12l-7.49,29.15c-.37,1.47,1.11,2.73,2.5,2.13l40.73-17.56c19.32,4.38,43.08,6.62,69.86,6.62,72.17,0,122.55-16.22,122.55-47.04,0-38.47-50.38-74.87-122.55-74.87Z"/>
        <path class="cls-2" d="M118.86-95.46C46.69-95.46-3.69-56.61-3.69-20.59-3.69-9.91,2.36-.99,13.27,6.12l-7.49,29.15c-.37,1.47,1.11,2.73,2.5,2.13l40.73-17.56c19.32,4.38,43.08,6.62,69.86,6.62,72.17,0,122.55-16.22,122.55-47.04,0-38.47-50.38-74.87-122.55-74.87Z"/>
      </g>
    </g>
  </g>
</svg>