<?xml version="1.0" encoding="UTF-8"?>
<svg xmlns="http://www.w3.org/2000/svg" xmlns:xlink="http://www.w3.org/1999/xlink" viewBox="0 0 30.39 33.33">
  <defs>
    <style>
      .cls-1 {
        fill: #182334;
      }

      .cls-2 {
        fill: url(#radial-gradient-3);
      }

      .cls-3 {
        fill: url(#radial-gradient-2);
      }

      .cls-4 {
        fill: #fff;
      }

      .cls-4, .cls-5, .cls-6, .cls-7, .cls-8, .cls-9 {
        mix-blend-mode: overlay;
      }

      .cls-10 {
        fill: url(#radial-gradient);
      }

      .cls-11 {
        fill: #141f2d;
      }

      .cls-12 {
        isolation: isolate;
      }

      .cls-5 {
        fill: url(#linear-gradient);
      }

      .cls-13 {
        fill: #eb317d;
        mix-blend-mode: multiply;
        opacity: .5;
      }

      .cls-6 {
        fill: #202020;
        opacity: .32;
      }

      .cls-7 {
        fill: url(#linear-gradient-2);
      }

      .cls-8 {
        fill: url(#linear-gradient-3);
      }

      .cls-9 {
        fill: url(#linear-gradient-4);
      }
    </style>
    <radialGradient id="radial-gradient" cx="20.06" cy="9.39" fx="20.06" fy="9.39" r="22.28" gradientUnits="userSpaceOnUse">
      <stop offset="0" stop-color="#1cb3f7"/>
      <stop offset=".26" stop-color="#1483b5"/>
      <stop offset=".62" stop-color="#0a4560"/>
      <stop offset=".88" stop-color="#041e2a"/>
      <stop offset="1" stop-color="#020f16"/>
    </radialGradient>
    <radialGradient id="radial-gradient-2" cx="23.59" cy="18.53" fx="23.59" fy="18.53" r="42.6" gradientUnits="userSpaceOnUse">
      <stop offset=".17" stop-color="#ff61a0"/>
      <stop offset=".36" stop-color="#ff599c"/>
      <stop offset="1" stop-color="#ff4592"/>
    </radialGradient>
    <linearGradient id="linear-gradient" x1="2.17" y1="10.87" x2="10.91" y2="28.19" gradientTransform="translate(13.58 10.05) rotate(-2.16)" gradientUnits="userSpaceOnUse">
      <stop offset="0" stop-color="#fff"/>
      <stop offset=".27" stop-color="#fff" stop-opacity=".68"/>
      <stop offset=".53" stop-color="#fff" stop-opacity=".39"/>
      <stop offset=".75" stop-color="#fff" stop-opacity=".18"/>
      <stop offset=".91" stop-color="#fff" stop-opacity=".05"/>
      <stop offset="1" stop-color="#fff" stop-opacity="0"/>
    </linearGradient>
    <linearGradient id="linear-gradient-2" x1="3.03" y1="11.72" x2="4.3" y2="14.24" gradientTransform="translate(14.03 9.92)" xlink:href="#linear-gradient"/>
    <linearGradient id="linear-gradient-3" x1="4.14" y1="12.5" x2="4.88" y2="13.97" gradientTransform="translate(14.05 9.88)" xlink:href="#linear-gradient"/>
    <radialGradient id="radial-gradient-3" cx="3.39" cy="1.24" fx="3.39" fy="1.24" r="10.7" xlink:href="#radial-gradient-2"/>
    <linearGradient id="linear-gradient-4" x1=".9" y1="3.25" x2="6.23" y2="3.25" gradientTransform="matrix(1,0,0,1,0,0)" xlink:href="#linear-gradient"/>
  </defs>
  <g class="cls-12">
    <g id="Layer_2" data-name="Layer 2">
      <g id="Layer_1-2" data-name="Layer 1">
        <g>
          <g>
            <g>
              <path class="cls-10" d="M8.14,28.6c-.07,0-.15-.02-.21-.05-.12-.06-.2-.18-.23-.31l-.64-3.34-.34-1.73-.53-2.8-1.98-10.28-.36-1.9-.81-4.19-.13-.74c-.06-.18,0-.37.16-.48.07-.06.16-.08.25-.08.1,0,.19.03.27.08l16.63,10.56,4.78,3.05c.11.07.18.18.2.31.02.13-.02.26-.1.36-.2.23-.4.46-.62.7-5.97,6.51-16.07,10.76-16.17,10.8-.06.02-.11.03-.17.03Z"/>
              <path class="cls-11" d="M3.34,3.15l.03.02,3.61,2.3.24.15,1.5.95,2.99,1.9,1.49.95,2.76,1.75,1.48.94,2.54,1.61,1.47.94.71.45,2.6,1.66c-.2.23-.4.46-.61.69-5.97,6.51-16.01,10.69-16.01,10.69l-.64-3.34-.34-1.73-.53-2.8-.34-1.76-.6-3.11-.35-1.82-.69-3.59-.36-1.9-.81-4.19-.13-.73v-.03M3.35,2.27c-.19,0-.39.06-.55.18-.29.22-.42.59-.33.94l.12.67.81,4.2.36,1.9.69,3.59.35,1.82.6,3.11.34,1.76.53,2.8.34,1.74.64,3.34c.05.26.22.49.46.62.13.07.28.11.42.11.12,0,.23-.02.34-.07.42-.17,10.29-4.33,16.33-10.91.22-.24.42-.47.63-.71.17-.2.25-.46.21-.72-.04-.26-.18-.49-.4-.63l-2.6-1.66-.71-.45-1.47-.94-2.54-1.61-1.48-.94-2.76-1.75-1.49-.95-2.99-1.9-1.5-.95-.24-.15-3.6-2.3c-.15-.1-.33-.14-.5-.14h0Z"/>
            </g>
            <g>
              <path class="cls-1" d="M4.28,8.11l.36,1.89c1.6-1.18,2.96-2.35,4.07-3.43l-1.5-.95c-.85.79-1.82,1.64-2.93,2.49Z"/>
              <path class="cls-1" d="M5.34,13.6l.35,1.82c3.26-2.05,5.75-4.22,7.51-5.99l-1.5-.95c-1.56,1.53-3.68,3.37-6.37,5.12Z"/>
              <path class="cls-1" d="M6.28,18.52l.34,1.77c5.06-2.68,8.63-5.86,10.82-8.17l-1.49-.94c-2.05,2.11-5.26,4.92-9.67,7.34Z"/>
              <path class="cls-1" d="M7.16,23.08l.33,1.73c7.01-3.19,11.59-7.49,13.96-10.15l-1.47-.94c-2.28,2.5-6.52,6.41-12.82,9.36Z"/>
            </g>
            <path class="cls-6" d="M24.76,16.77c-5.87,6.9-16.62,11.38-16.62,11.38l-.64-3.34-.34-1.73-.53-2.8-.34-1.76-.6-3.11-.35-1.82-.69-3.59-.36-1.9-.95-4.95,3.64,2.32c-.17.12-.32.21-.39.24-.32.13-.51,1.15-.77,1.25-.25.09,4.12,12.41,7.41,12.95,2.85.48,7.07-2.35,8.93-4.8l2.6,1.66Z"/>
            <path class="cls-4" d="M24.76,16.77c-.2.23-.4.46-.61.69L3.48,3.91l-.13-.73h.02s3.61,2.29,3.61,2.29l.24.15,1.5.95,2.99,1.9,1.49.95,2.76,1.75,1.48.94,2.54,1.61,1.47.94.71.45,2.6,1.66Z"/>
          </g>
          <g>
            <g>
              <path class="cls-3" d="M8.45,32.88c-.14,0-.28-.02-.43-.05-1.08-.27-1.35-1.22-1.35-1.94-.45-.11-.9-.42-1.08-1.03-.11-.37-.06-.77.16-1.13.3-.53.88-.91,1.45-.96,0-.66.22-1.47,1.1-1.83.33-.13.66-.2,1-.2.38,0,.7.08.95.17.13-.36.37-.81.81-1.11.25-.17.56-.27.92-.27.25,0,.49.04.7.1.06-.61.28-1.48.97-1.93.61-.4,1.23-.48,1.65-.48h.01c.09-.25.28-.54.68-.87.54-.42,1.25-.51,1.75-.51.1,0,.19,0,.28,0,.22-.35.68-.89,1.52-1.03.21-.04.42-.05.61-.05.24,0,.47.02.66.06-.01-.33.06-.68.3-1,.35-.44.84-.66,1.2-.77.03-.37.2-.85.7-1.3.34-.3.7-.45,1.09-.45.12,0,.24.02.34.04.17-.44.54-1,1.33-1.29.08-.03.19-.07.32-.09.14-.03.26-.04.38-.04.97,0,1.4.88,1.54,1.6.07,0,.14,0,.21,0,.86,0,1.45.34,1.67.96.1.3.07.61-.08.88-.2.35-.57.6-.93.77,0,0,.01.02.02.03.13.21.26.56.13,1.07-.17.65-.55.99-.93,1.13-.01.4-.14.98-.66,1.43-.46.41-.98.5-1.35.51-.04.49-.23,1.19-.92,1.71-.38.28-.79.42-1.22.42-.13,0-.25-.01-.36-.03-.01.08-.03.16-.06.24-.09.26-.32.63-.88.88-.41.18-.8.29-1.15.31,0,.02,0,.05,0,.08-.03.21-.14.51-.5.77-.16.11-.34.2-.54.27-.17.05-.34.08-.51.08-.11.54-.49,1.2-1.41,1.59-.5.2-.97.31-1.4.31-.21,0-.38-.02-.53-.06-.19.33-.5.77-.92.93-.12.05-.27.08-.42.08-.25,0-.49-.07-.68-.16-.34.6-1.12,1.57-2.62,1.69-.15.01-.29.02-.42.02-.8,0-1.33-.2-1.68-.44-.07.12-.15.25-.25.36-.29.35-.68.54-1.13.54Z"/>
              <path class="cls-11" d="M26.46,15.38c1.1,0,1.15,1.65,1.15,1.65,0,0,.27-.06.6-.06.46,0,1.06.11,1.25.66.32.94-1.56,1.36-1.56,1.36,0,0,.93.19.68,1.13-.22.81-.77.87-.92.87-.03,0-.04,0-.04,0,0,0,.19.88-.49,1.47-.38.33-.8.4-1.11.4-.24,0-.41-.05-.41-.05,0,0,.21,1.13-.73,1.85-.34.25-.67.33-.95.33-.52,0-.89-.26-.89-.26,0,0,.45.91-.6,1.38-.49.22-.87.28-1.13.28-.3,0-.45-.08-.45-.08,0,0,.46.56-.15,1-.14.1-.28.16-.42.21-.15.05-.29.06-.42.06-.22,0-.37-.05-.37-.05,0,0,.16,1.12-1.17,1.68-.51.21-.92.28-1.23.28-.5,0-.75-.17-.75-.17,0,0-.36.88-.85,1.07-.08.03-.17.05-.26.05-.43,0-.88-.33-.88-.33,0,0-.58,1.71-2.46,1.86-.14.01-.27.02-.39.02-1.54,0-1.86-.82-1.86-.82,0,0-.08.52-.41.91-.18.22-.43.38-.79.38-.1,0-.21-.01-.33-.04-1.28-.32-.97-1.9-.97-1.9,0,0-.02,0-.06,0-.21,0-.86-.06-1.08-.77-.08-.26-.03-.53.11-.76.24-.42.72-.74,1.17-.74.14,0,.28.03.41.1,0,0-.42-1.49.75-1.96.3-.12.58-.17.84-.17.74,0,1.24.38,1.24.38,0,0,.1-.93.77-1.39.19-.14.43-.19.67-.19.56,0,1.12.27,1.12.27,0,0-.08-1.61.79-2.18.51-.33,1.05-.4,1.4-.4.25,0,.42.04.42.04,0,0-.18-.4.56-1,.43-.34,1.04-.41,1.47-.41.31,0,.53.04.53.04,0,0,.33-.89,1.34-1.06.19-.03.37-.04.53-.04.74,0,1.28.25,1.28.25,0,0-.42-.76.04-1.36.46-.59,1.32-.69,1.32-.69,0,0-.24-.63.52-1.32.29-.25.56-.33.79-.33.38,0,.64.22.64.22,0,0,.08-1.09,1.18-1.5.08-.03.17-.06.27-.08.1-.02.19-.03.28-.03M26.46,14.48c-.15,0-.31.02-.47.05-.14.03-.28.07-.42.13-.7.25-1.14.73-1.41,1.21-.02,0-.05,0-.07,0-.34,0-.86.1-1.38.56-.48.43-.71.9-.81,1.31-.38.15-.82.4-1.15.82-.19.25-.3.52-.36.78-.08,0-.17,0-.26,0-.23,0-.46.02-.68.06-.79.13-1.34.58-1.68,1.01-.02,0-.03,0-.05,0-.57,0-1.38.1-2.02.6-.34.27-.56.54-.7.78-.46.03-1.05.16-1.62.54-.65.43-.95,1.16-1.09,1.79-.11-.01-.22-.02-.33-.02-.46,0-.86.12-1.19.35-.37.26-.62.6-.8.93-.21-.05-.44-.08-.7-.08-.4,0-.79.08-1.17.23-.93.38-1.28,1.15-1.36,1.87-.58.16-1.11.58-1.42,1.13-.27.45-.34.98-.19,1.47.2.64.62,1.03,1.08,1.23.09.85.54,1.77,1.67,2.05.19.05.37.07.54.07.58,0,1.11-.25,1.48-.71.01-.02.03-.03.04-.05.38.17.89.29,1.54.29.14,0,.3,0,.46-.02,1.45-.12,2.31-.93,2.77-1.59.16.04.32.07.5.07.21,0,.41-.04.6-.11.42-.16.74-.51.97-.85.09,0,.19.01.3.01.49,0,1.02-.12,1.57-.34.92-.38,1.38-1.01,1.59-1.59.1-.02.2-.04.3-.07.25-.08.47-.19.67-.33.36-.26.54-.55.63-.81.31-.06.63-.16.96-.3.64-.29.95-.71,1.09-1.04.01,0,.02,0,.03,0,.53,0,1.04-.18,1.49-.51.63-.48.93-1.1,1.05-1.66.47-.08.9-.28,1.26-.59.5-.43.72-.99.79-1.48.4-.23.76-.64.94-1.3.11-.42.08-.76,0-1.02.3-.19.57-.43.74-.74.21-.38.26-.82.12-1.24-.27-.77-.97-1.23-1.95-1.27-.27-.87-.89-1.59-1.9-1.59h0Z"/>
            </g>
            <path class="cls-13" d="M27.9,18.99s.93.19.68,1.13c-.25.95-.97.87-.97.87,0,0,.19.88-.49,1.47-.68.6-1.52.36-1.52.36,0,0,.21,1.13-.73,1.85-.94.71-1.84.07-1.84.07,0,0,.45.91-.6,1.38-1.06.47-1.58.2-1.58.2,0,0,.46.56-.15,1-.61.42-1.21.22-1.21.22,0,0,.16,1.12-1.17,1.68s-1.98.1-1.98.1c0,0-.36.88-.85,1.07-.49.2-1.14-.29-1.14-.29,0,0-.58,1.71-2.46,1.86-1.88.15-2.25-.81-2.25-.81,0,0-.24,1.56-1.52,1.25-1.28-.32-.97-1.9-.97-1.9,0,0-.88.08-1.14-.77-.08-.26-.03-.53.11-.76.07.34.24.65.6.79.92.36,1.43-.32,1.43-.32,0,0-.13,1.24.85,1.11.99-.14,1.06-.92,1.06-.92,0,0,.77,1.47,1.93.52.97-.8,1-1.65.99-1.92.05.19.25.63,1.25.23,1.22-.49,1.11-1.36,1.11-1.36,0,0,.74.99,1.82.07,1.09-.92.86-1.94.33-2.27-.52-.33-.91.44-.91.44,0,0-.26-.93.72-1.23.98-.29,1.58.5,1.58.5,0,0-.11-.52.44-1.1s1.26-.45,1.26-.45c0,0-1.26.56-.48,1.36s1.53-.87,1.53-.87c0,0,1.19.43,1.83-.51.66-.93,0-2.07,0-2.07,0,0,1.44.48,2.09-.49.65-.98-.2-1.67-.2-1.67,0,0,1.52-.89,1.41-2-.05-.5-.44-.95-.85-1.3.08-.03.17-.06.27-.08,1.37-.3,1.43,1.62,1.43,1.62,0,0,1.52-.34,1.84.6.32.94-1.56,1.36-1.56,1.36Z"/>
            <path class="cls-5" d="M27.9,18.99s.93.19.68,1.13c-.25.95-.97.87-.97.87,0,0,.19.88-.49,1.47-.68.6-1.52.36-1.52.36,0,0,.21,1.13-.73,1.85-.94.71-1.84.07-1.84.07,0,0,.45.91-.6,1.38-1.06.47-1.58.2-1.58.2,0,0,.46.56-.15,1-.14.1-.28.16-.42.21.09-.11.17-.25.24-.43.27-.67-.07-.98-.13-1.03.11.04.99.35,1.75-.11s.37-1.39.31-1.52c.09.03,1.24.46,2.01-.12.8-.61.71-1.84.71-1.84,0,0,1.07.16,1.53-.25s.42-1.52.42-1.52c0,0,.81-.04.85-.63.05-.58-.63-1.05-.63-1.05,0,0,1.93-.54,1.58-1.22-.36-.68-1.61-.35-1.61-.35,0,0,.2-1.01-.74-1.37-.95-.36-1.57,1.44-1.57,1.44,0,0-.85-.39-1.38.19s-.15,1.25-.15,1.25c0,0-.92.09-1.51.7-.6.61-.02,1.61-.02,1.61,0,0-.77-.63-1.89-.41-1.12.22-.94,1.5-.94,1.5,0,0-.78-.66-2.02-.21-1.23.46-.71,1.53-.71,1.53,0,0-1.75-.85-2.16.51-.42,1.37.54,2.31.54,2.31,0,0-.76-.44-1.32-.15-.5.25-.35.91-.3,1.06-.09-.11-.42-.55-.33-1.04.11-.56.78-.49.78-.49,0,0-.68-.51-1.65-.32-.97.19-1.1,1.62-1.1,1.62,0,0-1.1-.86-2.05-.41-.95.46-.74,2.11-.74,2.11-.53-.43-1.72-.44-1.74.52-.02.96,1.23.85,1.23.85,0,0-.43.63.06,1.5.37.65,1.25.44,1.64.3-.23.28-.58.47-1.12.34-1.28-.32-.97-1.9-.97-1.9,0,0-.88.08-1.14-.77-.08-.26-.03-.53.11-.76.31-.55,1.05-.94,1.59-.64,0,0-.42-1.49.75-1.96s2.08.21,2.08.21c0,0,.1-.93.77-1.39.65-.46,1.79.08,1.79.08,0,0-.08-1.61.79-2.18.88-.57,1.82-.37,1.82-.37,0,0-.18-.4.56-1,.75-.59,2-.38,2-.38,0,0,.33-.89,1.34-1.06,1-.17,1.82.2,1.82.2,0,0-.42-.76.04-1.36.46-.59,1.32-.69,1.32-.69,0,0-.24-.63.52-1.32.76-.68,1.43-.11,1.43-.11,0,0,.08-1.09,1.18-1.5.08-.03.17-.06.27-.08,1.37-.3,1.43,1.62,1.43,1.62,0,0,1.52-.34,1.84.6.32.94-1.56,1.36-1.56,1.36Z"/>
            <ellipse class="cls-7" cx="17.32" cy="22.15" rx=".77" ry=".51" transform="translate(-.82 .67) rotate(-2.16)"/>
            <ellipse class="cls-8" cx="18.34" cy="22.68" rx=".4" ry=".31" transform="translate(-.84 .71) rotate(-2.16)"/>
          </g>
          <g>
            <g>
              <path class="cls-2" d="M3.96,6.46c-.51,0-.88-.28-1.12-.58,0,0,0,0-.01,0-.23.1-.46.16-.69.16-.41,0-.77-.18-1.03-.54-.42-.56-.39-1.15-.22-1.59-.05-.04-.11-.08-.16-.14-.14-.15-.3-.41-.28-.83.02-.5.34-.86.87-.97-.02-.23,0-.5.13-.75.13-.26.42-.61,1.08-.75.14-.03.28-.05.41-.05.76,0,1.2.5,1.43,1.01.16-.06.33-.09.51-.09.79,0,1.48.6,1.76,1.52.14.45,0,.93-.39,1.36-.22.25-.5.45-.69.57-.02.54-.27,1.28-1.09,1.56-.17.06-.33.08-.49.08Z"/>
              <path class="cls-11" d="M2.93.9c1.02,0,1.17,1.28,1.17,1.28.19-.24.47-.36.76-.36.51,0,1.08.38,1.33,1.2.11.35-.06.68-.29.93-.34.38-.82.62-.82.62,0,0,.14,1.08-.78,1.39-.13.04-.24.06-.35.06-.67,0-.95-.73-.95-.73,0,0-.14.11-.34.19-.15.07-.33.13-.52.13-.23,0-.47-.09-.68-.36-.59-.78.06-1.55.06-1.55,0,0-.66-.02-.63-.71.02-.51.53-.58.81-.58.1,0,.17,0,.17,0,0,0-.56-1.2.74-1.48.11-.03.22-.04.32-.04M2.93,0c-.16,0-.34.02-.51.06-.82.18-1.2.63-1.38.99-.11.21-.16.43-.18.63C.35,1.9.03,2.36,0,2.94c-.02.55.19.91.38,1.13-.12.51-.07,1.12.37,1.71.35.46.84.71,1.39.71.19,0,.38-.03.58-.09.3.28.71.5,1.24.5.21,0,.42-.04.63-.11.93-.31,1.28-1.09,1.37-1.73.19-.14.41-.31.61-.53.49-.53.67-1.19.48-1.8-.33-1.11-1.19-1.83-2.18-1.83-.09,0-.19,0-.28.02-.34-.54-.9-.93-1.66-.93h0Z"/>
            </g>
            <path class="cls-9" d="M5.91,3.94c.01-.37-.09-.84-.55-1.24-.96-.84-1.52.33-1.52.33,0,0,.26-1.57-1-1.61-1.27-.03-.53,1.23-.53,1.23,0,0-.69-.06-.85.38-.16.44.59.55.59.55,0,0-.59.42-.39,1.07.17.51.76.75,1.01.82-.33.15-.83.26-1.2-.23-.59-.78.06-1.55.06-1.55,0,0-.66-.02-.63-.71.03-.7.98-.57.98-.57,0,0-.56-1.2.74-1.48,1.31-.29,1.49,1.24,1.49,1.24.52-.65,1.7-.46,2.09.84.11.35-.06.68-.29.93Z"/>
          </g>
        </g>
      </g>
    </g>
  </g>
</svg>